# xmcd
#
# Track frame offsets: 
#        183
#        12570
#        29045
#        46783
#        64533
#        78183
#        94758
#        110908
#        133683
#        148983
#        171833
#        185133
#        201633
#        214233
#        230433
#        245883
#
# Disc length: 3568 seconds
#
# Revision: 2
# Processed by: cddbd v1.5.2PL0 Copyright (c) Steve Scherf et al.
# Submitted via: ExactAudioCopy v0.95b4
#
DISCID=fb0dee10
DTITLE=Frères Jacques - Expression
DYEAR=1900
DGENRE=Chanson
TTITLE0=C'que c'est beau la photographie
TTITLE1=Shah, Shah persan
TTITLE2=Le complexe de la Truite
TTITLE3=Barbara
TTITLE4=Dolly 25
TTITLE5=Chanson sans calcium
TTITLE6=La Marie-Joseph
TTITLE7=La violoncelliste
TTITLE8=Stanislas
TTITLE9=Général à vendre
TTITLE10=La Saint-Médard
TTITLE11=La queue du chat
TTITLE12=Le poinçonneur des Lilas
TTITLE13=Le général de Castagnetas
TTITLE14=Monsieur William
TTITLE15=Le tango interminable des perceurs de coffres-forts
EXTD=
EXTT0=
EXTT1=
EXTT2=
EXTT3=
EXTT4=
EXTT5=
EXTT6=
EXTT7=
EXTT8=
EXTT9=
EXTT10=
EXTT11=
EXTT12=
EXTT13=
EXTT14=
EXTT15=
PLAYORDER=
